<?xml version="1.0" encoding="utf-8"?>
<!-- Generator: Adobe Illustrator 25.2.0, SVG Export Plug-In . SVG Version: 6.00 Build 0)  -->
<svg version="1.1" id="Layer_1" xmlns="http://www.w3.org/2000/svg" xmlns:xlink="http://www.w3.org/1999/xlink" x="0px" y="0px"
	 viewBox="0 0 28 28" style="enable-background:new 0 0 28 28;" xml:space="preserve">
<style type="text/css">
	.st0{fill:#F1F2F6;stroke:#E0E7F1;stroke-width:1.2;}
	.st1{fill:#ADB8C8;}
	.st2{fill:none;stroke:#C5D1DB;stroke-width:1.2;}
</style>
<g>
	<circle class="st0" cx="14" cy="14" r="12.6"/>
	<path class="st1" d="M23.8,21.9c-0.3,0.4-0.6,0.7-0.9,1c-2.3,2.3-5.4,3.7-8.9,3.7s-6.6-1.4-8.9-3.7c-0.3-0.3-0.6-0.7-0.9-1
		c1.7-3.2,5.5-5.5,9.8-5.5C18.4,16.4,22.2,18.6,23.8,21.9z"/>
	<circle class="st1" cx="14" cy="10.4" r="4.2"/>
</g>
<path class="st2" d="M26.6,14c0,3-1,5.7-2.8,7.9c-0.3,0.4-0.6,0.7-0.9,1c-2.3,2.3-5.4,3.7-8.9,3.7s-6.6-1.4-8.9-3.7
	c-0.3-0.3-0.6-0.7-0.9-1C2.4,19.7,1.4,17,1.4,14c0-3.5,1.4-6.6,3.7-8.9c2.3-2.3,5.4-3.7,8.9-3.7C21,1.4,26.6,7,26.6,14z"/>
</svg>
