<?xml version="1.0" encoding="utf-8"?>
<!-- Generator: Adobe Illustrator 25.2.0, SVG Export Plug-In . SVG Version: 6.00 Build 0)  -->
<svg version="1.1" id="Layer_1" xmlns="http://www.w3.org/2000/svg" xmlns:xlink="http://www.w3.org/1999/xlink" x="0px" y="0px"
	 viewBox="0 0 78 36" style="enable-background:new 0 0 78 36;" xml:space="preserve">
<style type="text/css">
	.st0{fill:#ED685C;}
	.st1{fill:#FFFFFF;}
</style>
<path class="st0" d="M6.6,0h66.8c2.2,0,3.6,2.2,2.7,4.2L70,18l6.1,13.8c0.9,2-0.6,4.2-2.7,4.2H6.6C3,36,0,33,0,29.4V6.6
	C0,3,3,0,6.6,0z"/>
<path class="st1" d="M29,23h-2l-4.4-6.7V23h-2v-9.8h2l4.4,6.7v-6.7h2V23z M38.1,19c0,0.3,0,0.5-0.1,0.8h-5.7c0,0.6,0.2,1,0.6,1.3
	c0.3,0.3,0.8,0.5,1.3,0.5c0.7,0,1.2-0.3,1.6-0.9h2.1c-0.2,0.7-0.7,1.4-1.3,1.8c-0.6,0.5-1.4,0.7-2.3,0.7c-0.7,0-1.4-0.2-2-0.5
	c-0.6-0.3-1-0.8-1.4-1.4c-0.3-0.6-0.5-1.3-0.5-2.1c0-0.8,0.2-1.5,0.5-2.1c0.3-0.6,0.8-1.1,1.4-1.4c0.6-0.3,1.3-0.5,2-0.5
	c0.7,0,1.4,0.2,2,0.5c0.6,0.3,1,0.8,1.4,1.4C37.9,17.5,38.1,18.2,38.1,19z M36.1,18.4c0-0.5-0.2-0.9-0.5-1.2
	c-0.4-0.3-0.8-0.5-1.3-0.5c-0.5,0-0.9,0.1-1.2,0.4c-0.3,0.3-0.5,0.7-0.6,1.2H36.1z M50.3,15.2L48,23h-2.1l-1.4-5.4L43.1,23h-2.1
	l-2.3-7.8h2l1.4,5.9l1.5-5.9h2.1l1.5,5.9l1.4-5.9H50.3z"/>
</svg>
