<?xml version="1.0" encoding="utf-8"?>
<!-- Generator: Adobe Illustrator 25.2.0, SVG Export Plug-In . SVG Version: 6.00 Build 0)  -->
<svg version="1.1" id="Layer_1" xmlns="http://www.w3.org/2000/svg" xmlns:xlink="http://www.w3.org/1999/xlink" x="0px" y="0px"
	 viewBox="0 0 380 259" style="enable-background:new 0 0 380 259;" xml:space="preserve">
<style type="text/css">
	.st0{clip-path:url(#SVGID_2_);}
	.st1{opacity:0.1;fill:#04BF94;enable-background:new    ;}
	.st2{fill:#FFDF9C;}
	.st3{fill:#FFCDD3;}
	.st4{opacity:5.000000e-02;enable-background:new    ;}
	.st5{opacity:0.1;enable-background:new    ;}
	.st6{fill:#DCE6F2;}
	.st7{fill:#FF8AA1;}
	.st8{fill:#2C2C34;}
	.st9{fill:#04BF94;}
	.st10{opacity:0.2;fill:#FFFFFF;enable-background:new    ;}
	.st11{fill:none;stroke:#535461;stroke-width:0.3242;stroke-miterlimit:10;}
	.st12{fill:none;stroke:#535461;stroke-width:0.6484;stroke-miterlimit:10;}
	.st13{fill:#0CA481;}
	.st14{fill:#FFD037;}
	.st15{fill:#FC6681;}
	.st16{opacity:0.4;fill:#FFFFFF;enable-background:new    ;}
	.st17{fill:#009C78;}
	.st18{fill:#00AE86;}
</style>
<g>
	<defs>
		<rect id="SVGID_1_" x="34.1" y="23.3" width="345" height="235.7"/>
	</defs>
	<clipPath id="SVGID_2_">
		<use xlink:href="#SVGID_1_"  style="overflow:visible;"/>
	</clipPath>
	<g class="st0">
		<path class="st1" d="M96.5,152.6c9.4,11.9,5.7,29.4-0.2,43.3c-2,4.7-4.3,9.6-3.4,14.6c1,6.1,6.5,10.6,12.3,13
			c10.5,4.3,23,3.3,32.6-2.7c8.3-5.2,14.3-13.6,22.7-18.5c14.2-8.3,32.2-5.1,47.6,0.5c10.9,4,22.8,9.3,33.6,5.1
			c7.6-3,12.9-10.2,15.7-17.8c1.4-3.7,2.4-7.7,5-10.6c1.6-1.7,3.6-3,5.7-4c19.2-9.5,43.4-4.4,62-15c12.6-7.1,20.6-20.5,24.2-34.5
			c3.6-14,3.1-28.7,2.2-43.1c-0.6-10.2-1.8-21.2-8.3-29.1c-6.9-8.4-18.8-11.5-29.6-9.9s-20.5,7.3-29.1,13.9
			C278.9,66.3,269,76.6,255.8,80c-9,2.3-18.4,1-27.6,0.6c-15.4-0.7-30.9,0.9-46.2,2.7c-14.7,1.7-29.5,3.6-43.5,8.3
			c-9.9,3.4-17.9,9.5-27.2,13.8c-6.1,2.8-12.7,3.6-18.5,7.1c-7.1,4.4-13.6,12-11.8,21C82.7,142,91.6,146.3,96.5,152.6z"/>
		<path class="st1" d="M372,182c0,0-54-14.2-123.9,21.8c-69.9,36-146.4-28.3-144.9-38.1c1.5-9.7-50.8,0-50.8,0v87H372V182z"/>
		<path class="st2" d="M334.4,52.6c-8.1,0-14.7-6.6-14.7-14.7c0-8.1,6.6-14.7,14.7-14.7s14.7,6.6,14.7,14.7
			C349.1,46.1,342.6,52.6,334.4,52.6z"/>
		<path class="st3" d="M231.5,98.3l2.4,14.9c0,0,3,9.8,2.7,14.6c-0.3,4.8,0,11.3,0,11.3s7.2,13.1,1.2,18.4c-6,5.4-7.8-17-7.8-17
			s0.9-9.5-1.2-14.6c-2.1-5.1-2.4-16.1-2.4-16.1L231.5,98.3z"/>
		<path class="st4" d="M231.5,98.3l2.4,14.9c0,0,3,9.8,2.7,14.6c-0.3,4.8,0,11.3,0,11.3s7.2,13.1,1.2,18.4c-6,5.4-7.8-17-7.8-17
			s0.9-9.5-1.2-14.6c-2.1-5.1-2.4-16.1-2.4-16.1L231.5,98.3z"/>
		<path class="st3" d="M196.5,149.4l-4.1,15.5l-3.9,18.1c0,0-2.1,3.9,0,11.9l-6.9,22.3c0,0-3.9,14.3-6.3,14.6
			c-2.4,0.3,2.4,11.3,2.4,11.3l6.6-3.9c0,0,1.8-8.9,4.2-11c2.4-2.1,10.2-22.9,10.2-22.9l2.4-14.6c0,0,7.5-19.9,14-24.7
			c6.6-4.8,8.7-12.5,8.7-12.5L196.5,149.4z"/>
		<path class="st4" d="M223.7,153.6c0,0-2.1,7.7-8.7,12.5c-6.6,4.8-14,24.7-14,24.7l-2.4,14.6c0,0-7.8,20.8-10.2,22.9
			c-1.8,1.5-3.2,6.7-3.8,9.4c-0.2,1-0.4,1.6-0.4,1.6l-6.6,3.9c0,0-4.8-11-2.4-11.3c0.4,0,0.8-0.4,1.2-1c2.3-3.3,5.1-13.5,5.1-13.5
			l6.9-22.3c-2.1-8,0-11.9,0-11.9l3.9-18.1l4.1-15.5L223.7,153.6z"/>
		<path class="st3" d="M262,230.9l-2.4,5.7l-10.8-1.2c0.3-1.5,0.5-3.1,0.5-4.7c0.1-3.4-0.4-7.9-3.2-11.4
			c-5.1-6.2-12.8-21.7-12.8-21.7s-7.8-8.3-9.6-11.6l-15-25l0.5-2.2l-4-3.7h25.1l6,23.2l4.8,9.5c0,0,10.2,8.6,14,26.8
			c0,0,3.9,12.1,6.3,15.7C261.6,230.5,261.8,230.7,262,230.9z"/>
		<path class="st5" d="M184.7,237.6c-0.2,1-0.4,1.6-0.4,1.6l-6.6,3.9c0,0-4.8-11-2.4-11.3c0.4,0,0.8-0.4,1.2-1
			c0.3,0.2,0.6,0.5,0.7,0.8c0.1,0.3,0.2,0.7,0.1,1.1c-0.1,0.4-0.3,0.9-0.5,1.3c-0.9,1.5,3,3.9,3,3.9
			C181.1,239.4,183.3,238.5,184.7,237.6z"/>
		<path class="st6" d="M177,233.2c0.4-1.7-1.7-2.9-3-1.6c-0.3,0.3-0.6,0.7-0.8,1.1c-1.2,2.1-10.2,3.9-12,3.3
			c-1.8-0.6-8.1-1.2-6.6,3.3c1.5,4.5,28.4,11,28.4,11s3-4.2,2.7-7.1c-0.2-2-0.2-4,0-5.9c0,0-4.2,3.9-6.3,1.2c0,0-3.9-2.4-3-3.9
			C176.8,234.1,176.9,233.6,177,233.2z"/>
		<path class="st5" d="M262,230.9l-2.4,5.7l-10.8-1.2c0.3-1.5,0.5-3.1,0.5-4.7c0.1-0.2,0.3-0.4,0.5-0.5c0.2-0.1,0.4-0.2,0.7-0.3
			c0.2,0,0.5,0,0.7,0.1c0.2,0.1,0.4,0.2,0.6,0.4c0.6,0.6,1.1,1.2,1.5,1.7c1.2,1.5,5.1,0.6,5.1,0.6c1,0.3,2.2-1.1,3.1-2.4
			C261.6,230.5,261.8,230.7,262,230.9z"/>
		<path class="st6" d="M252.1,230.9c-0.2-0.2-0.4-0.3-0.7-0.4c-0.3-0.1-0.5-0.1-0.8,0c-0.3,0.1-0.5,0.2-0.7,0.4
			c-0.2,0.2-0.3,0.4-0.4,0.7c-0.5,2.1-1.7,4.8-4.3,5.9c-4.5,1.8-10.8,4.8-8.7,7.4c2.1,2.7,9.3,5.1,15.5,3c6.3-2.1,15.2-7.1,15.2-7.1
			l-4.5-11.9c0,0-2.4,5.1-4.2,4.5c0,0-3.9,0.9-5.1-0.6C253.2,232.2,252.6,231.5,252.1,230.9z"/>
		<path class="st3" d="M211.5,63.8c0,0,7.2,9.8,5.4,16.7c-1.8,6.8,14.3-4.5,14.3-4.5s-8.4-7.4-6.9-19.6L211.5,63.8z"/>
		<path class="st7" d="M235.1,156.8c-12,7.1-26.3,4.2-26.3,4.2l0.3-2.1c-0.2,0-0.4,0-0.6,0.1c-11.4,1-14-2.4-14-2.4
			c1.8-5,3.2-15.6,4.1-23.8c0.1-1.2,0.2-2.3,0.3-3.4c0.2-2.4,0.4-4.4,0.5-5.8c0.1-1.2,0.1-1.9,0.1-1.9l1.2-8.9
			c0,0,3.3-10.7,1.8-17.8c-1.3-6.1,2.9-8.3,4.1-8.8c0.2-0.1,0.4-0.1,0.6-0.2c1.6-0.4,3.5-2.1,5-3.8c2.3-2.6,5.1-4.5,8.4-5.7
			c1.5-0.5,2.8-1.1,2.8-1.1c2.1-2.4,7.8-0.9,7.8-0.9c6.9,4.5,3.3,19,3.3,19l-2.9,8.1c-1.6,4.5-3.9,8.8-6.5,12.8
			c-4.4,6.7,1.6,16,1.6,16C236,137.8,235.1,156.8,235.1,156.8z"/>
		<path class="st4" d="M209.5,143l-1.1,16c-11.4,1-14-2.4-14-2.4c1.8-5,3.2-15.6,4.1-23.8c0.1-1.2,0.2-2.3,0.3-3.4L209.5,143z"/>
		<path class="st5" d="M228.5,101.2c0,0-5.4,10.1-7.2,14.6c-1.8,4.5-1.8,3-2.7,4.5c-0.9,1.5-10.5,8-10.5,8l-9.7,4.5
			c0.4-3.8,0.7-7.2,0.9-9.1l9.1-6c0,0,6.3-3.9,6.6-8.9c0.3-5.1,4.2-14.3,4.2-14.3s7.8-8.3,11.1-4.5
			C233.6,93.8,228.5,101.2,228.5,101.2z"/>
		<path class="st3" d="M219.3,92.9c0,0-3.9,9.2-4.2,14.3c-0.3,5.1-6.6,8.9-6.6,8.9l-19.7,13.1c0,0-17,5.7-11.4,12.2
			c5.7,6.5,14.6-7.1,14.6-7.1l16.1-7.4c0,0,9.6-6.5,10.5-8c0.9-1.5,0.9,0,2.7-4.5c1.8-4.5,7.2-14.6,7.2-14.6s5.1-7.4,1.8-11.3
			C227,84.6,219.3,92.9,219.3,92.9z"/>
		<path class="st5" d="M216.9,96.8c0,0,6-4.5,7.2-5.9c0.5-0.7,1.3-0.6,2.1-0.2c1.4,0.6,2.9,0.8,4.4,0.7c1.3-0.1,2.6,0,2.4,0.7
			c-0.3,1.5,0.9-7.7,0.9-7.7l-5.1-1.8l-6.6,3.6L216.9,96.8z"/>
		<path class="st7" d="M216.9,96.2c0,0,6-4.5,7.2-5.9c0.5-0.7,1.3-0.6,2.1-0.2c1.4,0.6,2.9,0.8,4.4,0.7c1.3-0.1,2.6,0,2.4,0.7
			c-0.3,1.5,0.9-7.7,0.9-7.7l-5.1-1.8l-6.6,3.6L216.9,96.2z"/>
		<path class="st5" d="M202.8,96.8c1.1,0.5,2.3,0.7,3.4,0.6c1.2-0.1,2.3-0.4,3.3-1"/>
		<path class="st5" d="M222.4,57.1c-0.2-1.8,2,1.9,2.2-0.1l-12.8,7.4c0,0,0.7,1,1.7,2.6c0.5,0.1,1,0.1,1.5,0.1
			C218.8,67,220,59.7,222.4,57.1z"/>
		<path class="st3" d="M214.6,66.4c-7.2,0-13-5.8-13-12.9c0-7.1,5.8-12.9,13-12.9c7.2,0,13,5.8,13,12.9
			C227.6,60.7,221.8,66.4,214.6,66.4z"/>
		<path class="st5" d="M208.8,53.7c0.1,0.8,0.1,1.7,0.5,2.4c0.5,1,1.7,1.5,2.7,2.1c4,2.4,5.1,7.9,3.9,12.4c-0.4,1.6-1.2,3.2-0.9,4.8
			c0.5,2.8,3.7,4.2,6.5,4.5c2.8,0.2,5.8-0.2,8.4,0.8c4.4,1.7,6.4,6.9,10.2,9.8c4.4,3.4,10.4,3.2,16,3.5c2,0.1,4.1,0.4,6.1,0
			c2-0.4,4-1.6,4.7-3.5c1-2.7-0.8-5.6-2.9-7.6c-2.1-2-4.7-3.6-5.9-6.2c-1.6-3.5-0.3-8-2.3-11.3c-0.4-0.7-0.9-1.2-1.6-1.5
			c-0.9-0.3-1.9-0.1-2.8-0.1c-3.7,0.1-6.8-2.8-8.6-6.1c-1.7-3.3-2.4-6.9-4-10.3c-1.8-3.8-4.7-7.1-8.6-8.7c-2.3-1-4.7-1.3-7.1-2
			c-2.7-0.8-5.2-2-8-2.5c-2.7-0.5-5.8-0.2-7.8,1.8c-1.9,1.8-2.4,4.7-4.2,6.5c-0.7,0.7-1.6,1.3-1.9,2.3c-0.8,2.2,3,2.4,4.2,3.3
			c0.9,0.6,1.7,1.5,2.3,2.4C208.3,51.5,208.6,52.6,208.8,53.7z"/>
		<path class="st8" d="M209.4,53.4c0.1,0.8,0.1,1.7,0.5,2.4c0.5,1,1.7,1.5,2.7,2.1c4,2.4,5.1,7.9,3.9,12.4c-0.4,1.6-1.2,3.2-0.9,4.8
			c0.5,2.8,3.7,4.2,6.5,4.5c2.8,0.2,5.8-0.2,8.4,0.8c4.4,1.7,6.4,6.9,10.2,9.8c4.4,3.4,10.4,3.2,16,3.5c2,0.1,4.1,0.4,6.1,0
			c2-0.4,4-1.6,4.7-3.5c1-2.7-0.8-5.6-2.9-7.6c-2.1-2-4.7-3.6-5.9-6.2c-1.6-3.5-0.3-8-2.3-11.3c-0.4-0.7-0.9-1.2-1.6-1.5
			c-0.9-0.3-1.9-0.1-2.8-0.1c-3.7,0.1-6.8-2.8-8.6-6.1c-1.7-3.3-2.4-6.9-4-10.3c-1.8-3.8-4.7-7.1-8.6-8.7c-2.3-1-4.7-1.3-7.1-2
			c-2.7-0.8-5.2-2-8-2.5c-2.7-0.5-5.8-0.2-7.8,1.8c-1.9,1.8-2.4,4.7-4.2,6.5c-0.7,0.7-1.6,1.3-1.9,2.3c-0.8,2.2,3,2.4,4.2,3.3
			c0.9,0.6,1.7,1.5,2.3,2.4C208.9,51.2,209.2,52.3,209.4,53.4z"/>
		<path class="st9" d="M361.3,253c0,0,9.7-17.4-2.4-31.3c-12.1-13.9-26.3-6.2-26.3-6.2s-17.7,8.3-13.6,28c0,0,2.4,10,9.4,9.4H361.3z
			"/>
		<path class="st10" d="M361.3,253c0,0,9.7-17.4-2.4-31.3c-12.1-13.9-26.3-6.2-26.3-6.2s-17.7,8.3-13.6,28c0,0,2.4,10,9.4,9.4H361.3
			z"/>
		<path class="st11" d="M346,253l-10.7-32.5"/>
		<path class="st11" d="M325.6,225.5c0,0,5.5-2.6,11-1.1c0,0,2.9-7.1,9.4-8.3"/>
		<path class="st11" d="M322.9,236.7c0,0,9.3-6.8,16.2-4.7c0,0,7.7-9.2,13-8.6"/>
		<path class="st11" d="M325,248.8c0,0,8-5.8,17.9-5.4c0,0,7.5-9.1,14.6-9.7"/>
		<path class="st11" d="M341.7,253c1.2-0.6,2.5-1,3.8-1.4c0,0,6.2-8,18.5-5.4"/>
		<path class="st9" d="M255.9,253c0,0-9.7-15.9,14.5-39.5c24.2-23.6,22.7-28,20.7-31.6c0,0,19.5,2.4,15.3,31.6
			c-4.1,29.2-21.8,39.5-21.8,39.5H255.9z"/>
		<path class="st12" d="M269.6,253c0,0,7.2-21,18.1-33.6c10.9-12.7,8.9-33.6,3.2-37.5"/>
		<path class="st9" d="M96.5,64.2c4.3,4.4,4.6,11.2,4.6,11.2S94.4,75,90,70.6c-4.3-4.4-4.6-11.2-4.6-11.2S92.2,59.8,96.5,64.2z"/>
		<path class="st13" d="M355.3,131.5c4.3,4.4,4.6,11.2,4.6,11.2s-6.8-0.4-11.1-4.8c-4.3-4.4-4.6-11.2-4.6-11.2
			S350.9,127.1,355.3,131.5z"/>
		<path class="st9" d="M113,146c4.3,4.4,4.6,11.2,4.6,11.2s-6.8-0.4-11.1-4.8c-4.3-4.4-4.6-11.2-4.6-11.2S108.7,141.5,113,146z"/>
		<path class="st9" d="M326.1,141.1c5.7-2.4,12.1-0.1,12.1-0.1s-2.9,6.1-8.6,8.5c-5.7,2.4-12.1,0.1-12.1,0.1
			S320.4,143.5,326.1,141.1z"/>
		<path class="st14" d="M254.1,132.3c3.3-5.2,9.8-7,9.8-7s1.2,6.7-2.2,11.9c-3.3,5.2-9.8,7-9.8,7S250.8,137.5,254.1,132.3z"/>
		<path class="st15" d="M174.2,156.5c-1.4,0-2.6-1.1-2.6-2.6c0-1.4,1.1-2.6,2.6-2.6c1.4,0,2.6,1.1,2.6,2.6
			C176.7,155.3,175.6,156.5,174.2,156.5z"/>
		<path class="st15" d="M168.2,183.7c-1.4,0-2.6-1.1-2.6-2.6c0-1.4,1.1-2.6,2.6-2.6c1.4,0,2.6,1.1,2.6,2.6
			C170.7,182.6,169.6,183.7,168.2,183.7z"/>
		<path class="st9" d="M222.1,189.5c0,0,9.7-10.9,13.3,2.7c3.5,13.6,5.6,15.3,12.7,11.8c7.1-3.5,14.5,13.3-3,25.4
			c-17.4,12.1-7.7,24-7.7,24h-62.3c0,0-8.3-24,9.7-32.3c18-8.3,17.4-14.5,16.8-22.7C201.2,190.1,222.1,189.5,222.1,189.5z"/>
		<path class="st12" d="M230.4,185.4c0,0-40.4,53.3-26.6,68"/>
		<path class="st12" d="M240.9,204.8c0,0-9.6,8.1-25.2,4c-15.6-4.1-11.8-14.7-11.8-14.7"/>
		<path class="st12" d="M175.4,230.6c0,0,20.8-10.1,31.3-6.3c27.2,9.8,47.5-16.6,47.5-16.6"/>
		<path class="st9" d="M235.9,253c0,0-12.7-9.4,3.2-42.5c0,0,21.2-26.3,0-51c0,0,46.3,1.2,45.4,44.3c-0.9,43.1-23.2,49.3-23.2,49.3
			H235.9z"/>
		<path class="st12" d="M247.7,253c0,0,3.2-22.7,11.8-36.6c1.7-2.8,2.9-5.9,3.6-9.1c2.9-12.6-1.2-25.7-10.5-34.7l-13.5-13.2"/>
		<path class="st5" d="M235.9,253c0,0-12.7-9.4,3.2-42.5c0,0,21.2-26.3,0-51c0,0,46.3,1.2,45.4,44.3c-0.9,43.1-23.2,49.3-23.2,49.3
			H235.9z"/>
		<path class="st9" d="M122.1,252.7c0,0,43.4-9.7-11.8-66.5c0,0-23.8,22.6-15.1,50.6c3.5,11.3,14.8,18.2,26.3,16
			C121.7,252.8,121.9,252.7,122.1,252.7z"/>
		<path class="st16" d="M122.1,252.7c1-0.2,42.5-10.7-11.8-66.5c0,0-23.8,22.6-15.1,50.6c3.5,11.3,14.8,18.2,26.3,16
			C121.7,252.8,121.9,252.7,122.1,252.7z"/>
		<path class="st11" d="M121.6,253c0,0-22.9-34.5-11.3-66.8"/>
		<path class="st9" d="M301.8,252.7c0,0,43.4-9.7-11.8-66.5c0,0-23.8,22.6-15.1,50.6c3.5,11.3,14.8,18.2,26.3,16
			C301.4,252.8,301.6,252.7,301.8,252.7z"/>
		<path class="st16" d="M301.8,252.7c1-0.2,42.5-10.7-11.8-66.5c0,0-23.8,22.6-15.1,50.6c3.5,11.3,14.8,18.2,26.3,16
			C301.4,252.8,301.6,252.7,301.8,252.7z"/>
		<path class="st11" d="M301.3,253c0,0-22.9-34.5-11.3-66.8"/>
		<path class="st9" d="M204.7,252.7c0,0,43.4-9.7-11.8-66.5c0,0-23.8,22.6-15.1,50.6c3.5,11.3,14.8,18.2,26.3,16
			C204.3,252.8,204.5,252.7,204.7,252.7z"/>
		<path class="st16" d="M204.7,252.7c1-0.2,42.5-10.7-11.8-66.5c0,0-23.8,22.6-15.1,50.6c3.5,11.3,14.8,18.2,26.3,16
			C204.3,252.8,204.5,252.7,204.7,252.7z"/>
		<path class="st11" d="M204.2,253c0,0-22.9-34.5-11.3-66.8"/>
		<path class="st9" d="M71.4,252.7c0,0,43.4-9.7-11.8-66.5c0,0-23.8,22.6-15.1,50.6c3.5,11.3,14.8,18.2,26.3,16
			C70.9,252.8,71.2,252.7,71.4,252.7z"/>
		<path class="st16" d="M71.4,252.7c1-0.2,42.5-10.7-11.8-66.5c0,0-23.8,22.6-15.1,50.6c3.5,11.3,14.8,18.2,26.3,16
			C70.9,252.8,71.2,252.7,71.4,252.7z"/>
		<path class="st11" d="M70.8,253c0,0-22.9-34.5-11.3-66.8"/>
		<path class="st9" d="M152.2,252.7c0,0,43.4-9.7-11.8-66.5c0,0-23.8,22.6-15.1,50.6c3.5,11.3,14.8,18.2,26.3,16
			C151.8,252.8,152,252.7,152.2,252.7z"/>
		<path class="st16" d="M152.2,252.7c1-0.2,42.5-10.7-11.8-66.5c0,0-23.8,22.6-15.1,50.6c3.5,11.3,14.8,18.2,26.3,16
			C151.8,252.8,152,252.7,152.2,252.7z"/>
		<path class="st11" d="M151.7,253c0,0-22.9-34.5-11.3-66.8"/>
		<path class="st9" d="M303.3,249.3c-1.3-1-2.5-2.1-2.9-3.5c-0.2-0.7-0.1-1.5,0.3-2.2c0.4-0.7,1-1.2,1.7-1.4
			c1.8-0.6,3.8,0.5,5.3,1.5s3.2,2.2,5.1,2c-2-1.5-3-3.8-2.4-6c0.1-0.5,0.3-0.9,0.7-1.2c1-0.9,2.9-0.5,4.1,0.2c3.9,2.2,5,6.5,5,10.4
			c0.4-1.4,0.1-2.8,0.1-4.3c0-1.4,0.5-3,2-3.8c0.9-0.5,2-0.5,3-0.6c1.7-0.1,3.7,0.1,4.9,1.1c1.5,1.3,1.1,3.5-0.2,4.9
			c-1.3,1.4-3.2,2.3-5,3.3c-1.4,0.7-2.8,1.6-3.6,2.8c-0.1,0.2-0.2,0.3-0.3,0.5H310C307.6,252.1,305.4,250.8,303.3,249.3z"/>
		<path class="st9" d="M120.6,249.3c-1.3-1-2.5-2.1-2.9-3.5c-0.2-0.7-0.1-1.5,0.3-2.2c0.4-0.7,1-1.2,1.7-1.4
			c1.8-0.6,3.8,0.5,5.3,1.5c1.5,1,3.2,2.2,5.1,2c-2-1.5-3-3.8-2.4-6c0.1-0.5,0.3-0.9,0.7-1.2c1-0.9,2.9-0.5,4.1,0.2
			c3.9,2.2,5,6.5,5,10.4c0.4-1.4,0.1-2.8,0.1-4.3c0-1.4,0.5-3,2-3.8c0.9-0.5,2-0.5,3-0.6c1.7-0.1,3.7,0.1,4.9,1.1
			c1.5,1.3,1.1,3.5-0.2,4.9c-1.3,1.4-3.2,2.3-5,3.3c-1.4,0.7-2.8,1.6-3.6,2.8c-0.1,0.2-0.2,0.3-0.3,0.5h-10.9
			C125,252.1,122.7,250.8,120.6,249.3z"/>
		<path class="st17" d="M179.3,228.1c-9.5,17.7-29.8,25.3-29.8,25.3s-4.8-21.1,4.8-38.8s29.8-25.3,29.8-25.3
			S188.9,210.4,179.3,228.1z"/>
		<path class="st9" d="M172.8,222.2c-17.2,10.4-23.9,30.9-23.9,30.9s21.3,3.8,38.5-6.6c17.2-10.4,23.9-30.9,23.9-30.9
			S190,211.9,172.8,222.2z"/>
		<path class="st17" d="M234.8,228.1c-9.5,17.7-29.8,25.3-29.8,25.3s-4.8-21.1,4.8-38.8c9.5-17.7,29.8-25.3,29.8-25.3
			S244.3,210.4,234.8,228.1z"/>
		<path class="st9" d="M228.2,222.2c-17.2,10.4-23.9,30.9-23.9,30.9s21.3,3.8,38.5-6.6c17.2-10.4,23.9-30.9,23.9-30.9
			S245.5,211.9,228.2,222.2z"/>
		<path class="st17" d="M291.5,168.3c16.5,24.7,12.4,56.4,12.4,56.4s-30.9-8.4-47.4-33.1c-16.5-24.7-12.4-56.4-12.4-56.4
			S275,143.6,291.5,168.3z"/>
		<path class="st13" d="M279.4,172.8c1.6,29.7,23.9,52.6,23.9,52.6s19.7-25.2,18.1-54.9S297.4,118,297.4,118
			S277.8,143.1,279.4,172.8z"/>
		<path class="st9" d="M56.6,206.5c-0.6,33.6,19.2,45.8,43.8,46.2c0.6,0,1.1,0,1.7,0c1.1,0,2.3,0,3.4-0.1
			c22.3-1.2,39.8-13.2,40.4-44.5c0.6-32.4-40-74-43.1-77.1c0,0,0,0,0,0c-0.1-0.1-0.2-0.2-0.2-0.2S57.2,172.8,56.6,206.5z"/>
		<path class="st17" d="M102.1,247.6l-15.9-23.1l15.9,25.6l0,2.6c1.1,0,2.3,0,3.4-0.1l-1.1-33.7l0-0.3l0-0.1l-0.1-3.2l16.9-25.1
			L104.3,213l-0.1,0.7l-0.9-25.5l14.5-26l-14.6,21.5l-0.4-52.7l0-0.2l0,0.2l-0.5,41.6l-13.7-16.7l13.7,20.3l-0.1,22.8l-12.7-22.1
			l12.7,25.4l0,12.7l-18.4-30.8l18.4,35.2L102.1,247.6z"/>
		<path class="st9" d="M125.9,206.5c-0.6,33.6,19.2,45.8,43.8,46.2c0.6,0,1.1,0,1.7,0c1.1,0,2.3,0,3.4-0.1
			c22.3-1.2,39.8-13.2,40.4-44.5c0.6-32.4-40-74-43.1-77.1c0,0,0,0,0,0c-0.1-0.1-0.2-0.2-0.2-0.2S126.5,172.8,125.9,206.5z"/>
		<path class="st17" d="M171.5,247.6l-15.9-23.1l15.9,25.6l0,2.6c1.1,0,2.3,0,3.4-0.1l-1.1-33.7l0-0.3l0-0.1l-0.1-3.2l16.9-25.1
			L173.6,213l-0.1,0.7l-0.9-25.5l14.5-26l-14.6,21.5l-0.4-52.7l0-0.2l0,0.2l-0.5,41.6L158,155.9l13.7,20.3l-0.1,22.8l-12.7-22.1
			l12.7,25.4l0,12.7l-18.4-30.8l18.4,35.2L171.5,247.6z"/>
		<path class="st18" d="M43,207.1c-0.6,33.6,19.2,45.8,43.8,46.2c0.6,0,1.1,0,1.7,0c1.1,0,2.3,0,3.4-0.1
			c22.3-1.2,39.8-13.2,40.4-44.5c0.6-32.4-40-74-43.1-77.1c0,0,0,0,0,0c-0.1-0.1-0.2-0.2-0.2-0.2S43.6,173.4,43,207.1z"/>
		<path class="st17" d="M88.6,248.2L72.6,225l15.9,25.6l0,2.6c1.1,0,2.3,0,3.4-0.1l-1.1-33.7l0-0.3l0-0.1l-0.1-3.2l16.9-25.1
			l-16.9,22.7l-0.1,0.7l-0.9-25.5l14.5-26l-14.6,21.5l-0.4-52.7l0-0.2l0,0.2l-0.5,41.6L75,156.5l13.7,20.3l-0.1,22.8L76,177.5
			l12.7,25.4l0,12.7l-18.4-30.8L88.6,220L88.6,248.2z"/>
		<path class="st9" d="M289.7,206.5c-0.6,33.6,19.2,45.8,43.8,46.2c0.6,0,1.1,0,1.7,0c1.1,0,2.3,0,3.4-0.1
			c22.3-1.2,39.8-13.2,40.4-44.5c0.6-32.4-40-74-43.1-77.1c0,0,0,0,0,0c-0.1-0.1-0.2-0.2-0.2-0.2S290.3,172.8,289.7,206.5z"/>
		<path class="st17" d="M335.2,247.6l-15.9-23.1l15.9,25.6l0,2.6c1.1,0,2.3,0,3.4-0.1l-1.1-33.7l0-0.3l0-0.1l-0.1-3.2l16.9-25.1
			L337.4,213l-0.1,0.7l-0.9-25.5l14.5-26l-14.6,21.5l-0.4-52.7l0-0.2l0,0.2l-0.5,41.6l-13.7-16.7l13.7,20.3l-0.1,22.8l-12.7-22.1
			l12.7,25.4l0,12.7l-18.4-30.8l18.4,35.2L335.2,247.6z"/>
		<path class="st17" d="M108.1,257.8c10.6-1.8,20.8-3.3,30.6-4.6l-3.9-7.5c1.3-0.5,7,3.8,7,3.8l-5.1-21.8c6.6,0.8,9.9,23.1,9.9,23.1
			l7.3-7.5l-3.6,8.5c30-3.5,55.9-4.8,77.7-4.9l-3.3-6.4c1.3-0.5,7,3.8,7,3.8l-5.1-21.8c6.6,0.8,9.9,23.1,9.9,23.1l7.3-7.5l-3.8,9
			c18.3,0.4,33.2,1.6,44.7,3c-3.4-10-14.8-19.5-14.8-19.5c8.7,2.6,13.3,6.9,15.7,11c0.2-20.7-3.2-41.2-10.2-60.7
			c0,0,18,39.2,15.7,65.4l-0.3,4.7c15.3,2.2,22.9,4.5,22.9,4.5L108.1,257.8z"/>
		<path class="st17" d="M73.6,256.1c10.6-1.8,20.8-3.3,30.6-4.6l-3.9-7.5c1.3-0.5,7,3.8,7,3.8l-5.1-21.8c6.6,0.8,9.9,23.1,9.9,23.1
			l7.3-7.5l-3.6,8.5c30-3.5,55.9-4.8,77.7-4.9l-3.3-6.4c1.3-0.5,7,3.8,7,3.8l-5.1-21.8c6.6,0.8,9.9,23.1,9.9,23.1l7.3-7.5l-3.8,9
			c18.3,0.4,33.2,1.6,44.7,3c-3.4-10-14.8-19.5-14.8-19.5c8.7,2.6,13.3,6.9,15.7,11c0.2-20.7-3.2-41.2-10.2-60.7
			c0,0,18,39.2,15.7,65.4l-0.3,4.7c15.3,2.2,22.9,4.5,22.9,4.5L73.6,256.1z"/>
		<path class="st17" d="M34.1,259c10.6-1.8,20.8-3.3,30.6-4.6l-3.9-7.5c1.3-0.5,7,3.8,7,3.8l-5.1-21.8c6.6,0.8,9.9,23.1,9.9,23.1
			l7.3-7.5l-3.6,8.5c30-3.5,55.9-4.8,77.7-4.9l-3.3-6.4c1.3-0.5,7,3.8,7,3.8l-5.1-21.8c6.6,0.8,9.9,23.1,9.9,23.1l7.3-7.5l-3.8,9
			c18.3,0.4,33.2,1.6,44.7,3c-3.4-10-14.8-19.5-14.8-19.5c8.7,2.6,13.3,6.9,15.7,11c0.2-20.7-3.2-41.2-10.2-60.7
			c0,0,18,39.2,15.7,65.4l-0.3,4.7c15.3,2.2,22.9,4.5,22.9,4.5L34.1,259z"/>
		<path class="st17" d="M164.8,256.1c10.6-1.8,20.8-3.3,30.6-4.6l-3.9-7.5c1.3-0.5,7,3.8,7,3.8l-5.1-21.8c6.6,0.8,9.9,23.1,9.9,23.1
			l7.3-7.5l-3.6,8.5c30-3.5,55.9-4.8,77.7-4.9l-3.3-6.4c1.3-0.5,7,3.8,7,3.8l-5.1-21.8c6.6,0.8,9.9,23.1,9.9,23.1l7.3-7.5l-3.8,9
			c18.3,0.4,33.2,1.6,44.7,3c-3.4-10-14.8-19.5-14.8-19.5c8.7,2.6,13.3,6.9,15.7,11c0.2-20.7-3.2-41.2-10.2-60.7
			c0,0,18,39.2,15.7,65.4l-0.3,4.7c15.3,2.2,22.9,4.5,22.9,4.5L164.8,256.1z"/>
	</g>
</g>
</svg>
